<svg width="89" height="16" viewBox="0 0 89 16" fill="none" xmlns="http://www.w3.org/2000/svg">
<path d="M9.65262 2.28801L10.826 4.63467C10.986 4.96134 11.4126 5.27467 11.7726 5.33467L13.8993 5.68801C15.2593 5.91467 15.5793 6.90134 14.5993 7.87467L12.9459 9.52801C12.6659 9.80801 12.5126 10.348 12.5993 10.7347L13.0726 12.7813C13.446 14.4013 12.5859 15.028 11.1526 14.1813L9.15928 13.0013C8.79928 12.788 8.20595 12.788 7.83928 13.0013L5.84595 14.1813C4.41928 15.028 3.55262 14.3947 3.92595 12.7813L4.39928 10.7347C4.48595 10.348 4.33262 9.80801 4.05262 9.52801L2.39928 7.87467C1.42595 6.90134 1.73928 5.91467 3.09928 5.68801L5.22595 5.33467C5.57928 5.27467 6.00595 4.96134 6.16595 4.63467L7.33928 2.28801C7.97928 1.01467 9.01928 1.01467 9.65262 2.28801Z" fill="#FFD700" stroke="#FFD700" stroke-linecap="round" stroke-linejoin="round"/>
<path d="M27.6526 2.28801L28.826 4.63467C28.986 4.96134 29.4126 5.27467 29.7726 5.33467L31.8993 5.68801C33.2593 5.91467 33.5793 6.90134 32.5993 7.87467L30.9459 9.52801C30.6659 9.80801 30.5126 10.348 30.5993 10.7347L31.0726 12.7813C31.446 14.4013 30.5859 15.028 29.1526 14.1813L27.1593 13.0013C26.7993 12.788 26.206 12.788 25.8393 13.0013L23.846 14.1813C22.4193 15.028 21.5526 14.3947 21.926 12.7813L22.3993 10.7347C22.4859 10.348 22.3326 9.80801 22.0526 9.52801L20.3993 7.87467C19.4259 6.90134 19.7393 5.91467 21.0993 5.68801L23.226 5.33467C23.5793 5.27467 24.0059 4.96134 24.1659 4.63467L25.3393 2.28801C25.9793 1.01467 27.0193 1.01467 27.6526 2.28801Z" fill="#FFD700" stroke="#FFD700" stroke-linecap="round" stroke-linejoin="round"/>
<path d="M45.6526 2.28801L46.826 4.63467C46.986 4.96134 47.4126 5.27467 47.7726 5.33467L49.8993 5.68801C51.2593 5.91467 51.5793 6.90134 50.5993 7.87467L48.9459 9.52801C48.6659 9.80801 48.5126 10.348 48.5993 10.7347L49.0726 12.7813C49.446 14.4013 48.5859 15.028 47.1526 14.1813L45.1593 13.0013C44.7993 12.788 44.206 12.788 43.8393 13.0013L41.846 14.1813C40.4193 15.028 39.5526 14.3947 39.926 12.7813L40.3993 10.7347C40.4859 10.348 40.3326 9.80801 40.0526 9.52801L38.3993 7.87467C37.4259 6.90134 37.7393 5.91467 39.0993 5.68801L41.226 5.33467C41.5793 5.27467 42.0059 4.96134 42.1659 4.63467L43.3393 2.28801C43.9793 1.01467 45.0193 1.01467 45.6526 2.28801Z" fill="#FFD700" stroke="#FFD700" stroke-linecap="round" stroke-linejoin="round"/>
<path d="M63.6526 2.28801L64.826 4.63467C64.986 4.96134 65.4126 5.27467 65.7726 5.33467L67.8993 5.68801C69.2593 5.91467 69.5793 6.90134 68.5993 7.87467L66.9459 9.52801C66.6659 9.80801 66.5126 10.348 66.5993 10.7347L67.0726 12.7813C67.446 14.4013 66.5859 15.028 65.1526 14.1813L63.1593 13.0013C62.7993 12.788 62.206 12.788 61.8393 13.0013L59.846 14.1813C58.4193 15.028 57.5526 14.3947 57.926 12.7813L58.3993 10.7347C58.4859 10.348 58.3326 9.80801 58.0526 9.52801L56.3993 7.87467C55.4259 6.90134 55.7393 5.91467 57.0993 5.68801L59.226 5.33467C59.5793 5.27467 60.0059 4.96134 60.1659 4.63467L61.3393 2.28801C61.9793 1.01467 63.0193 1.01467 63.6526 2.28801Z" fill="#FFD700" stroke="#FFD700" stroke-linecap="round" stroke-linejoin="round"/>
<path d="M81.6526 2.28801L82.826 4.63467C82.986 4.96134 83.4126 5.27467 83.7726 5.33467L85.8993 5.68801C87.2593 5.91467 87.5793 6.90134 86.5993 7.87467L84.9459 9.52801C84.6659 9.80801 84.5126 10.348 84.5993 10.7347L85.0726 12.7813C85.446 14.4013 84.5859 15.028 83.1526 14.1813L81.1593 13.0013C80.7993 12.788 80.206 12.788 79.8393 13.0013L77.846 14.1813C76.4193 15.028 75.5526 14.3947 75.926 12.7813L76.3993 10.7347C76.4859 10.348 76.3326 9.80801 76.0526 9.52801L74.3993 7.87467C73.4259 6.90134 73.7393 5.91467 75.0993 5.68801L77.226 5.33467C77.5793 5.27467 78.0059 4.96134 78.1659 4.63467L79.3393 2.28801C79.9793 1.01467 81.0193 1.01467 81.6526 2.28801Z" fill="#FFD700" stroke="#FFD700" stroke-linecap="round" stroke-linejoin="round"/>
</svg>
