<svg width="124" height="42" viewBox="0 0 124 42" fill="none" xmlns="http://www.w3.org/2000/svg">
<rect width="124" height="42" rx="6" fill="#121212"/>
<path d="M24.9292 8.68945C25.0796 10.0465 24.5379 11.3837 23.7462 12.3667C22.9201 13.3343 21.5985 14.0744 20.3113 13.9791C20.1428 12.6733 20.795 11.2848 21.5251 10.4377C22.3503 9.47633 23.7834 8.73981 24.9292 8.68945Z" fill="#F7F5F0"/>
<path d="M29.1431 16.5177C28.9994 16.6028 26.6188 18.0134 26.6449 20.8901C26.6757 24.3641 29.7066 25.5125 29.7429 25.5242C29.7248 25.6051 29.2682 27.1834 28.1314 28.7823C27.1821 30.1924 26.1875 31.571 24.6077 31.5944C23.8564 31.612 23.3491 31.3977 22.8205 31.1743C22.2694 30.9414 21.6951 30.6987 20.7968 30.6987C19.8445 30.6987 19.2447 30.9494 18.6663 31.1912C18.1659 31.4004 17.6814 31.6028 16.9986 31.6304C15.494 31.6852 14.3445 30.1268 13.3607 28.7293C11.3942 25.8776 9.8633 20.6932 11.9159 17.1653C12.9105 15.435 14.724 14.3208 16.6625 14.2911C17.5162 14.2738 18.3349 14.6004 19.0526 14.8867C19.6015 15.1057 20.0913 15.301 20.4924 15.301C20.8448 15.301 21.3208 15.1135 21.8757 14.8949C22.7501 14.5503 23.8201 14.1287 24.9102 14.2426C25.6557 14.2642 27.7772 14.5348 29.1459 16.516L29.1431 16.5177Z" fill="#F7F5F0"/>
<path fill-rule="evenodd" clip-rule="evenodd" d="M40.0404 9.46397H37.9139V15.7449H40.0404C41.9213 15.7449 43.0261 14.5828 43.0261 12.6023C43.0261 10.6261 41.9169 9.46397 40.0404 9.46397ZM38.7031 10.1691V15.0398H39.9877C41.4215 15.0398 42.2194 14.1693 42.2194 12.611C42.2194 11.0397 41.4258 10.1691 39.9877 10.1691H38.7031Z" fill="#F7F5F0"/>
<path fill-rule="evenodd" clip-rule="evenodd" d="M46.0745 15.8233C44.8118 15.8233 43.9612 14.9223 43.9612 13.4815C43.9612 12.0364 44.8118 11.1398 46.0745 11.1398C47.3328 11.1398 48.1834 12.0364 48.1834 13.4815C48.1834 14.9223 47.3328 15.8233 46.0745 15.8233ZM47.4074 13.4815C47.4074 14.5479 46.8812 15.1573 46.0745 15.1573C45.2678 15.1573 44.7372 14.5479 44.7372 13.4815C44.7372 12.4151 45.2678 11.8057 46.0745 11.8057C46.8812 11.8057 47.4074 12.4151 47.4074 13.4815Z" fill="#F7F5F0"/>
<path d="M53.003 15.7449H53.7791L55.0506 11.2181H54.2964L53.3845 14.9005H53.367L52.3322 11.2181H51.5956L50.5653 14.9005H50.5478L49.6358 11.2181H48.8773L50.1532 15.7449H50.9292L51.9552 12.241H51.9727L53.003 15.7449Z" fill="#F7F5F0"/>
<path d="M56.6915 11.2181H55.9725V15.7449H56.7354V13.0811C56.7354 12.315 57.2045 11.8101 57.9235 11.8101C58.625 11.8101 58.9714 12.2105 58.9714 12.9418V15.7449H59.7343V12.8069C59.7343 11.7796 59.1556 11.1398 58.1559 11.1398C57.45 11.1398 56.9633 11.4532 56.7091 11.9407H56.6915V11.2181Z" fill="#F7F5F0"/>
<path d="M61.042 9.46397V15.7449H61.8049V9.46397H61.042Z" fill="#F7F5F0"/>
<path fill-rule="evenodd" clip-rule="evenodd" d="M62.911 13.4815C62.911 14.9223 63.7615 15.8233 65.0243 15.8233C66.2826 15.8233 67.1332 14.9223 67.1332 13.4815C67.1332 12.0364 66.2826 11.1398 65.0243 11.1398C63.7615 11.1398 62.911 12.0364 62.911 13.4815ZM65.0242 15.1573C65.831 15.1573 66.3571 14.5479 66.3571 13.4815C66.3571 12.4151 65.831 11.8057 65.0242 11.8057C64.2175 11.8057 63.687 12.4151 63.687 13.4815C63.687 14.5479 64.2175 15.1573 65.0242 15.1573Z" fill="#F7F5F0"/>
<path fill-rule="evenodd" clip-rule="evenodd" d="M69.5326 15.8233C68.625 15.8233 68.0156 15.2792 68.0156 14.4652C68.0156 13.6905 68.6163 13.203 69.6685 13.142L70.9751 13.068V12.6893C70.9751 12.1365 70.6068 11.8057 69.9754 11.8057C69.3879 11.8057 69.0196 12.08 68.9232 12.5239H68.1866C68.2392 11.7404 68.9144 11.1398 69.993 11.1398C71.0628 11.1398 71.738 11.7143 71.738 12.6153V15.7449H71.0145V14.9658H70.997C70.7252 15.4838 70.1464 15.8233 69.5326 15.8233ZM70.9751 14.0256C70.9751 14.6785 70.4226 15.1791 69.7036 15.1791C69.1555 15.1791 68.7916 14.8962 68.7916 14.4652C68.7916 14.0387 69.1424 13.7688 69.7562 13.7296L70.9751 13.6556V14.0256Z" fill="#F7F5F0"/>
<path fill-rule="evenodd" clip-rule="evenodd" d="M72.7826 13.4815C72.7826 14.9005 73.5718 15.8233 74.7337 15.8233C75.3914 15.8233 75.9131 15.5012 76.2069 14.9789H76.22V15.7449H76.9478V9.46397H76.1849V11.9537H76.1674C75.8956 11.4575 75.3694 11.1398 74.7162 11.1398C73.5674 11.1398 72.7826 12.0625 72.7826 13.4815ZM74.8784 11.8057C74.0717 11.8057 73.5631 12.4586 73.5631 13.4815C73.5631 14.5088 74.0717 15.1573 74.8784 15.1573C75.6632 15.1573 76.1893 14.4957 76.1893 13.4815C76.1893 12.4717 75.6632 11.8057 74.8784 11.8057Z" fill="#F7F5F0"/>
<path fill-rule="evenodd" clip-rule="evenodd" d="M82.3079 15.8233C81.0452 15.8233 80.1946 14.9223 80.1946 13.4815C80.1946 12.0364 81.0452 11.1398 82.3079 11.1398C83.5663 11.1398 84.4168 12.0364 84.4168 13.4815C84.4168 14.9223 83.5663 15.8233 82.3079 15.8233ZM83.6408 13.4815C83.6408 14.5479 83.1147 15.1573 82.3079 15.1573C81.5012 15.1573 80.9707 14.5479 80.9707 13.4815C80.9707 12.4151 81.5012 11.8057 82.3079 11.8057C83.1147 11.8057 83.6408 12.4151 83.6408 13.4815Z" fill="#F7F5F0"/>
<path d="M86.2025 11.2181H85.4834V15.7449H86.2463V13.0811C86.2463 12.315 86.7154 11.8101 87.4345 11.8101C88.136 11.8101 88.4824 12.2105 88.4824 12.9418V15.7449H89.2453V12.8069C89.2453 11.7796 88.6665 11.1398 87.6669 11.1398C86.961 11.1398 86.4743 11.4532 86.22 11.9407H86.2025V11.2181Z" fill="#F7F5F0"/>
<path d="M93.6627 10.1256H92.8998V11.2181H92.2202V11.8406H92.8998V14.5697C92.8998 15.4403 93.2243 15.7798 94.0617 15.7798C94.2414 15.7798 94.4519 15.7667 94.544 15.7449V15.1094C94.4914 15.1182 94.316 15.1312 94.2283 15.1312C93.8381 15.1312 93.6627 14.944 93.6627 14.5305V11.8406H94.5484V11.2181H93.6627V10.1256Z" fill="#F7F5F0"/>
<path d="M95.6982 9.46397V15.7449H96.4611V13.1072C96.4611 12.3237 96.9303 11.8101 97.6888 11.8101C98.4034 11.8101 98.7673 12.241 98.7673 12.9592V15.7449H99.5302V12.8199C99.5302 11.8101 98.9252 11.1398 97.9255 11.1398C97.2328 11.1398 96.733 11.4357 96.4787 11.9407H96.4611V9.46397H95.6982Z" fill="#F7F5F0"/>
<path fill-rule="evenodd" clip-rule="evenodd" d="M104.573 14.4478H103.824C103.697 14.8744 103.271 15.166 102.693 15.166C101.873 15.166 101.36 14.5958 101.36 13.7296V13.6861H104.63V13.3988C104.63 12.0277 103.872 11.1398 102.64 11.1398C101.382 11.1398 100.575 12.093 100.575 13.4989C100.575 14.9223 101.368 15.8233 102.675 15.8233C103.67 15.8233 104.442 15.24 104.573 14.4478ZM102.627 11.797C101.912 11.797 101.412 12.3411 101.364 13.0941H103.841C103.824 12.3368 103.346 11.797 102.627 11.797Z" fill="#F7F5F0"/>
<path fill-rule="evenodd" clip-rule="evenodd" d="M45.3018 31.1425L44.197 27.9017H39.5933L38.4884 31.1425H36.5382L40.8991 19.1515H42.9247L47.2856 31.1425H45.3018ZM40.0704 26.4059L41.87 21.1459H41.9202L43.7198 26.4059H40.0704Z" fill="#F7F5F0"/>
<path fill-rule="evenodd" clip-rule="evenodd" d="M57.1019 26.7716C57.1019 24.0044 55.6287 22.2594 53.3939 22.2594C52.1216 22.2594 51.1088 22.8992 50.5898 23.9047H50.5564V22.4006H48.807V34.0343H50.6149V29.7049H50.6568C51.159 30.6771 52.1634 31.2921 53.4274 31.2921C55.6371 31.2921 57.1019 29.5387 57.1019 26.7716ZM52.9168 29.7714C54.3481 29.7714 55.2437 28.608 55.2437 26.7716C55.2437 24.9434 54.3481 23.7718 52.9168 23.7718C51.5357 23.7718 50.6066 24.9684 50.6066 26.7716C50.6066 28.5914 51.5273 29.7714 52.9168 29.7714Z" fill="#F7F5F0"/>
<path fill-rule="evenodd" clip-rule="evenodd" d="M63.4864 22.2594C65.7213 22.2594 67.1944 24.0044 67.1944 26.7716C67.1944 29.5387 65.7296 31.2921 63.5199 31.2921C62.256 31.2921 61.2515 30.6771 60.7493 29.7049H60.7075V34.0343H58.8995V22.4006H60.6489V23.9047H60.6824C61.2013 22.8992 62.2141 22.2594 63.4864 22.2594ZM65.3362 26.7716C65.3362 28.608 64.4406 29.7714 63.0093 29.7714C61.6198 29.7714 60.6991 28.5914 60.6991 26.7716C60.6991 24.9684 61.6282 23.7718 63.0093 23.7718C64.4406 23.7718 65.3362 24.9434 65.3362 26.7716Z" fill="#F7F5F0"/>
<path d="M74.4056 27.802H72.5558C72.673 29.9708 74.4809 31.3419 77.1594 31.3419C80.0221 31.3419 81.8217 29.9376 81.8217 27.6939C81.8217 25.9406 80.7921 24.9517 78.3145 24.3701L76.9837 24.046C75.4268 23.6637 74.7906 23.1651 74.7906 22.3175C74.7906 21.2539 75.7867 20.5226 77.2431 20.5226C78.6996 20.5226 79.6956 21.2456 79.8044 22.4422H81.6291C81.5705 20.3731 79.8212 18.9521 77.2682 18.9521C74.6902 18.9521 72.8739 20.3731 72.8739 22.4422C72.8739 24.1125 73.9034 25.1429 76.1215 25.6747L77.6868 26.0486C79.252 26.4309 79.9132 26.9876 79.9132 27.9183C79.9132 28.9903 78.8167 29.7714 77.2934 29.7714C75.703 29.7714 74.5395 28.9903 74.4056 27.802Z" fill="#F7F5F0"/>
<path d="M86.0383 20.3315H84.2219V22.4006H82.9413V23.8216H84.2219V28.8407C84.2219 30.5276 84.9167 31.2007 86.6995 31.2007C87.1013 31.2007 87.5031 31.1674 87.704 31.1176V29.6966C87.5868 29.7215 87.2938 29.7381 87.1097 29.7381C86.3731 29.7381 86.0383 29.3974 86.0383 28.6413V23.8216H87.7123V22.4006H86.0383V20.3315Z" fill="#F7F5F0"/>
<path fill-rule="evenodd" clip-rule="evenodd" d="M88.9994 26.7716C88.9994 29.5886 90.6567 31.3087 93.1761 31.3087C95.6956 31.3087 97.3529 29.5886 97.3529 26.7716C97.3529 23.9629 95.6872 22.2428 93.1761 22.2428C90.665 22.2428 88.9994 23.9629 88.9994 26.7716ZM93.1761 29.8296C94.5991 29.8296 95.5114 28.716 95.5114 26.7716C95.5114 24.8354 94.5907 23.7219 93.1761 23.7219C91.7615 23.7219 90.8408 24.8354 90.8408 26.7716C90.8408 28.716 91.7615 29.8296 93.1761 29.8296Z" fill="#F7F5F0"/>
<path d="M99.1589 22.4006H100.883V23.8881H100.925C101.218 22.866 102.005 22.2594 103.043 22.2594C103.302 22.2594 103.528 22.3009 103.662 22.3259V23.9961C103.52 23.9379 103.202 23.8964 102.85 23.8964C101.687 23.8964 100.967 24.6692 100.967 25.9074V31.1425H99.1589V22.4006Z" fill="#F7F5F0"/>
<path fill-rule="evenodd" clip-rule="evenodd" d="M111.026 28.581H112.742C112.491 30.1765 110.967 31.3149 108.95 31.3149C106.364 31.3149 104.798 29.5782 104.798 26.8193C104.798 24.0771 106.389 22.249 108.875 22.249C111.319 22.249 112.842 23.9608 112.842 26.6116V27.2265H106.623V27.3345C106.623 28.8552 107.544 29.8607 108.992 29.8607C110.021 29.8607 110.783 29.3455 111.026 28.581ZM106.623 26.075L111.026 26.0336C111.026 25.6653 110.871 24.9826 110.506 24.6205C110.141 24.2584 109.604 23.9835 108.875 23.9835C107.406 23.9835 106.623 24.9577 106.623 26.075Z" fill="#F7F5F0"/>
</svg>
