<svg width="57" height="56" viewBox="0 0 57 56" fill="none" xmlns="http://www.w3.org/2000/svg">
<path d="M20.5677 33.436C20.5677 36.446 22.8777 38.8726 25.7477 38.8726H31.6044C34.101 38.8726 36.131 36.7493 36.131 34.136C36.131 31.2893 34.8944 30.286 33.0511 29.6326L23.6477 26.366C21.8044 25.7126 20.5677 24.7093 20.5677 21.8626C20.5677 19.2493 22.5977 17.126 25.0944 17.126H30.951C33.821 17.126 36.131 19.5526 36.131 22.5626" stroke="#121212" stroke-width="1.5" stroke-linecap="round" stroke-linejoin="round"/>
<path d="M28.3333 14V42" stroke="#121212" stroke-width="1.5" stroke-linecap="round" stroke-linejoin="round"/>
<path d="M28.3333 51.3337C41.22 51.3337 51.6667 40.887 51.6667 28.0003C51.6667 15.1137 41.22 4.66699 28.3333 4.66699C15.4467 4.66699 5 15.1137 5 28.0003C5 40.887 15.4467 51.3337 28.3333 51.3337Z" stroke="#121212" stroke-width="1.5" stroke-linecap="round" stroke-linejoin="round"/>
</svg>
