<svg width="124" height="43" viewBox="0 0 124 43" fill="none" xmlns="http://www.w3.org/2000/svg">
<rect y="0.5" width="124" height="42" rx="6" fill="#121212"/>
<path d="M38.1173 11.6905H35.5787V12.4384H37.3793C37.2902 13.4872 36.4113 13.9345 35.5818 13.9345C34.5204 13.9345 33.5941 13.1054 33.5941 11.9433C33.5941 10.8113 34.477 9.93952 35.584 9.93952C36.4382 9.93952 36.9415 10.48 36.9415 10.48L37.4689 9.93769C37.4689 9.93769 36.7919 9.18945 35.5571 9.18945C33.9847 9.18945 32.7684 10.5069 32.7684 11.9299C32.7684 13.3244 33.9126 14.6839 35.5971 14.6839C37.0788 14.6839 38.1634 13.6765 38.1634 12.1864C38.1634 11.8721 38.1173 11.6905 38.1173 11.6905Z" fill="#F7F5F0"/>
<path d="M38.5956 23.7443H44.1741C44.178 23.76 44.275 24.1571 44.275 24.8338C44.275 28.108 41.8918 30.3222 38.6362 30.3222C34.9344 30.3222 32.4202 27.3345 32.4202 24.2705C32.4202 21.1435 35.0931 18.2484 38.5481 18.2486C41.2614 18.2486 42.7492 19.8927 42.7492 19.8927L41.59 21.0843C41.59 21.0843 40.4842 19.8965 38.6073 19.8965C36.1749 19.8965 34.2348 21.8122 34.2348 24.2997C34.2348 26.8531 36.27 28.675 38.6023 28.675C40.4252 28.675 42.3565 27.6922 42.552 25.3877H38.5956V23.7443Z" fill="#F7F5F0"/>
<path fill-rule="evenodd" clip-rule="evenodd" d="M44.9867 26.4029C44.9867 24.3307 46.6271 22.5541 48.9162 22.5541C50.7978 22.5541 52.8382 23.8778 52.8382 26.448C52.8382 28.6904 51.0841 30.3151 48.9429 30.3151C46.5777 30.3151 44.9867 28.5055 44.9867 26.4029ZM51.1313 26.4377C51.1313 24.9819 50.0646 24.0783 48.9389 24.0783C47.6741 24.0783 46.702 25.0822 46.702 26.4264C46.702 27.8001 47.6862 28.792 48.9337 28.792C50.069 28.792 51.1313 27.8626 51.1313 26.4377Z" fill="#F7F5F0"/>
<path fill-rule="evenodd" clip-rule="evenodd" d="M57.555 22.5541C55.266 22.5541 53.6255 24.3307 53.6255 26.4029C53.6255 28.5055 55.2166 30.3151 57.582 30.3151C59.723 30.3151 61.4772 28.6904 61.4772 26.448C61.4772 23.8778 59.4368 22.5541 57.555 22.5541ZM57.5778 24.0783C58.7034 24.0783 59.7702 24.9819 59.7702 26.4377C59.7702 27.8626 58.7079 28.792 57.5725 28.792C56.3251 28.792 55.341 27.8001 55.341 26.4264C55.341 25.0822 56.3129 24.0783 57.5778 24.0783Z" fill="#F7F5F0"/>
<path fill-rule="evenodd" clip-rule="evenodd" d="M62.2641 26.4355C62.2641 24.3851 63.9158 22.5583 66.0167 22.5583C66.9315 22.5583 67.6205 22.9097 68.1244 23.4488V22.7915H69.7632V29.7645C69.7632 32.5041 68.1711 33.8101 66.082 33.8101C64.1722 33.8101 63.0994 32.6444 62.5663 31.5251L64.0686 30.9016C64.2767 31.4017 64.8756 32.2834 66.0695 32.2834C67.3055 32.2834 68.1243 31.4813 68.1243 30.1425V29.3773C67.687 29.8812 67.0947 30.3203 65.9805 30.3203C64.1788 30.3203 62.2641 28.7714 62.2641 26.4355ZM66.1688 24.0794C67.199 24.0794 68.2568 24.9526 68.2568 26.4438C68.2568 27.9596 67.2012 28.7949 66.1461 28.7949C65.0261 28.7949 63.9838 27.892 63.9838 26.4582C63.9838 24.9685 65.0663 24.0794 66.1688 24.0794Z" fill="#F7F5F0"/>
<path fill-rule="evenodd" clip-rule="evenodd" d="M73.7486 26.4243C73.7486 24.1144 75.4125 22.5489 77.3944 22.5489C78.9576 22.5489 80.1387 23.5839 80.645 24.823L80.9172 25.4557L75.6759 27.6147C75.989 28.1933 76.4943 28.7907 77.593 28.7909C78.5713 28.7909 79.1575 28.2629 79.5082 27.7225L80.8593 28.6151C80.2535 29.42 79.2386 30.3181 77.5848 30.3181C75.6033 30.3181 73.7486 28.8685 73.7486 26.4243ZM77.4628 24.0414C78.177 24.0414 78.6909 24.4182 78.9092 24.8703L75.409 26.3226C75.2581 25.1982 76.3313 24.0414 77.4628 24.0414Z" fill="#F7F5F0"/>
<path d="M72.7991 30.0877H71.0775V18.6499H72.7991V30.0877Z" fill="#F7F5F0"/>
<path d="M94.1596 30.0877H95.8812V18.6499H94.1596V30.0877Z" fill="#F7F5F0"/>
<path fill-rule="evenodd" clip-rule="evenodd" d="M86.7517 30.0877H85.0301V18.6499L89.1945 18.6498C91.2132 18.6498 92.8648 20.2894 92.8648 22.2935C92.8648 24.2975 91.2132 25.9372 89.1945 25.9372H86.7517V30.0877ZM86.7516 24.228V20.3589H89.1945C90.263 20.3589 91.1433 21.2327 91.1433 22.2935C91.1433 23.3542 90.263 24.228 89.1945 24.228H86.7516Z" fill="#F7F5F0"/>
<path d="M108.592 33.8101L113.577 22.5491H111.696L109.441 27.645L107.185 22.5491H105.305L108.5 29.769L106.712 33.8101H108.592Z" fill="#F7F5F0"/>
<path fill-rule="evenodd" clip-rule="evenodd" d="M102.927 30.0877H104.649V25.974C104.918 21.7312 99.4999 20.7334 97.4497 23.792L98.8351 24.7148C99.8375 22.9749 102.698 23.3753 102.886 25.2399C102.026 25.0138 101.098 24.8499 100.249 24.9352C98.9247 25.0682 97.7907 25.9033 97.6105 27.271C97.5131 28.0101 97.6793 28.9211 98.199 29.4763C99.0089 30.3414 100.339 30.4579 101.431 30.1624C102.046 29.9959 102.53 29.6331 102.927 29.1645V30.0877ZM101.022 28.6715C101.964 28.4167 102.707 27.7325 102.927 26.7814C102.445 26.6265 102.002 26.5015 101.494 26.4407C98.5359 25.9991 99.0312 29.2102 101.022 28.6715Z" fill="#F7F5F0"/>
<path d="M49.2771 14.5774H48.4937V9.37212H49.2771V14.5774Z" fill="#F7F5F0"/>
<path d="M44.1061 14.5774H44.8896V10.1499H46.1757V9.37212H42.82V10.1499H44.1061V14.5774Z" fill="#F7F5F0"/>
<path d="M41.994 14.5774H38.9893V9.37212H41.994V10.1499H39.7729V11.5859H41.7266V12.3636H39.7729V13.7995H41.994V14.5774Z" fill="#F7F5F0"/>
<path d="M51.9844 14.5774V10.1499H53.2705V9.37212H49.915V10.1499H51.201V14.5774H51.9844Z" fill="#F7F5F0"/>
<path fill-rule="evenodd" clip-rule="evenodd" d="M55.2864 11.9299C55.2864 10.5068 56.5028 9.18945 58.0751 9.18945C59.6475 9.18945 60.8639 10.5068 60.8639 11.9299C60.8639 13.3132 59.7378 14.6621 58.0751 14.6835C56.4125 14.6621 55.2864 13.3132 55.2864 11.9299ZM58.0751 13.9341C57.0241 13.9213 56.1122 13.0964 56.1122 11.9433C56.1122 10.8206 56.9808 9.95379 58.0751 9.93977C59.1695 9.95379 60.0381 10.8206 60.0381 11.9433C60.0381 13.0964 59.1262 13.9213 58.0751 13.9341Z" fill="#F7F5F0"/>
<path d="M62.43 14.5774H61.6464V9.37212H62.43L64.9449 13.1617V9.37212H65.7285V14.5774H64.9463L62.43 10.7858V14.5774Z" fill="#F7F5F0"/>
<path d="M11.3758 15.682L20.2279 24.457L11.4183 33.309C11.1612 33.1468 11.0234 32.7956 11.021 32.342L10.9412 16.6311C10.9387 16.1343 11.1208 15.8313 11.3758 15.682Z" fill="#F7F5F0"/>
<path d="M12.3827 15.6939L23.147 21.5241L20.5941 24.089L12.0071 15.5767C12.1372 15.5936 12.2678 15.6316 12.3827 15.6939Z" fill="#F7F5F0"/>
<path d="M23.6257 27.0942L20.9628 24.4545L23.623 21.7818L27.2863 23.7657C28.1887 24.2542 27.7271 24.8654 27.2863 25.1049L23.6257 27.0942Z" fill="#F7F5F0"/>
<path d="M12.3827 33.2029C12.3014 33.248 12.223 33.2833 12.148 33.3114L20.5967 24.8225L23.1492 27.3528L12.3827 33.2029Z" fill="#F7F5F0"/>
</svg>
