<svg width="24" height="25" viewBox="0 0 24 25" fill="none" xmlns="http://www.w3.org/2000/svg">
<path d="M21 7.8125H3C2.59 7.8125 2.25 7.4725 2.25 7.0625C2.25 6.6525 2.59 6.3125 3 6.3125H21C21.41 6.3125 21.75 6.6525 21.75 7.0625C21.75 7.4725 21.41 7.8125 21 7.8125Z" fill="#14142A"/>
<path d="M21 12.8125H3C2.59 12.8125 2.25 12.4725 2.25 12.0625C2.25 11.6525 2.59 11.3125 3 11.3125H21C21.41 11.3125 21.75 11.6525 21.75 12.0625C21.75 12.4725 21.41 12.8125 21 12.8125Z" fill="#14142A"/>
<path d="M21 17.8125H3C2.59 17.8125 2.25 17.4725 2.25 17.0625C2.25 16.6525 2.59 16.3125 3 16.3125H21C21.41 16.3125 21.75 16.6525 21.75 17.0625C21.75 17.4725 21.41 17.8125 21 17.8125Z" fill="#14142A"/>
</svg>
