<svg width="57" height="56" viewBox="0 0 57 56" fill="none" xmlns="http://www.w3.org/2000/svg">
<path d="M9.59326 23.7541C9.59326 23.7541 13.182 21.4029 14.68 19.4619C16.4316 17.1924 19.1308 14.2158 19.1308 14.2158C19.1308 14.2158 24.1319 16.2639 28.6682 16.6001C32.7753 16.9046 34.1387 14.6437 38.2059 15.1697C44.0991 15.9319 47.7443 23.7541 47.7443 23.7541" stroke="#121212" stroke-width="1.2" stroke-linecap="round" stroke-linejoin="round"/>
<path d="M47.7443 34.904V27.2738V21.5511C47.7443 11.016 39.2039 2.47559 28.6688 2.47559C18.1337 2.47559 9.59326 11.016 9.59326 21.5511V32.9964C9.59326 43.5315 18.1337 52.0719 28.6688 52.0719" stroke="#121212" stroke-width="1.2" stroke-linecap="round"/>
<path d="M47.7447 27.2744H48.7974C50.9234 27.2744 52.6468 28.9979 52.6468 31.1239C52.6468 33.2499 50.9234 34.9733 48.7974 34.9733H47.7447V27.2744Z" fill="#121212" stroke="#121212" stroke-width="1.2" stroke-linejoin="round"/>
<path d="M9.59491 27.2744H8.54222C6.41622 27.2744 4.69276 28.9979 4.69276 31.1239C4.69276 33.2499 6.41622 34.9733 8.54222 34.9733H9.59491V27.2744Z" fill="#121212" stroke="#121212" stroke-width="1.2" stroke-linejoin="round"/>
<rect x="-0.6" y="0.6" width="6.65594" height="6.65595" rx="3.32797" transform="matrix(-1 0 0 1 33.3041 48.1436)" fill="#121212" stroke="#121212" stroke-width="1.2"/>
<circle cx="21.6667" cy="28.3262" r="3.5" fill="#121212"/>
<circle cx="35.6667" cy="28.3262" r="3.5" fill="#121212"/>
</svg>
