<svg width="32" height="32" viewBox="0 0 32 32" fill="none" xmlns="http://www.w3.org/2000/svg">
<path d="M10.4 28.6264H6.10671C3.66671 28.6264 1.66669 26.6398 1.66669 24.1864V16.4531C1.66669 15.9065 2.12002 15.4531 2.66669 15.4531H10.4C12.9333 15.4531 14.84 17.3597 14.84 19.8931V24.1864C14.8267 26.7198 12.92 28.6264 10.4 28.6264ZM3.66669 17.4664V24.1998C3.66669 25.5465 4.76004 26.6397 6.10671 26.6397H10.4C11.8133 26.6397 12.84 25.6131 12.84 24.1998V19.9064C12.84 18.4931 11.8133 17.4664 10.4 17.4664H3.66669Z" fill="#121212"/>
<path d="M2.66669 17.4677C2.12002 17.4677 1.66669 17.0144 1.66669 16.4677C1.66669 8.13437 3.36005 6.38775 8.20005 3.52108C8.68005 3.24108 9.29334 3.4011 9.57334 3.86776C9.85334 4.34776 9.69333 4.96106 9.22666 5.24106C4.90666 7.80105 3.66669 8.8677 3.66669 16.4677C3.66669 17.0144 3.21335 17.4677 2.66669 17.4677Z" fill="#121212"/>
<path d="M25.8935 28.6264H21.6002C19.1602 28.6264 17.1602 26.6398 17.1602 24.1864V16.4531C17.1602 15.9065 17.6135 15.4531 18.1602 15.4531H25.8935C28.4268 15.4531 30.3335 17.3597 30.3335 19.8931V24.1864C30.3335 26.7198 28.4268 28.6264 25.8935 28.6264ZM19.1735 17.4664V24.1998C19.1735 25.5465 20.2669 26.6397 21.6135 26.6397H25.9068C27.3202 26.6397 28.3468 25.6131 28.3468 24.1998V19.9064C28.3468 18.4931 27.3202 17.4664 25.9068 17.4664H19.1735Z" fill="#121212"/>
<path d="M18.1732 17.4677C17.6265 17.4677 17.1732 17.0144 17.1732 16.4677C17.1732 8.13437 18.8665 6.38775 23.7065 3.52108C24.1865 3.24108 24.7998 3.4011 25.0798 3.86776C25.3598 4.34776 25.1998 4.96106 24.7331 5.24106C20.4131 7.80105 19.1732 8.8677 19.1732 16.4677C19.1732 17.0144 18.7198 17.4677 18.1732 17.4677Z" fill="#121212"/>
</svg>
