<svg width="32" height="32" viewBox="0 0 32 32" fill="none" xmlns="http://www.w3.org/2000/svg">
<path d="M29.3335 16.5327H21.6002C19.0668 16.5327 17.1602 14.626 17.1602 12.0927V7.79932C17.1602 5.26598 19.0668 3.35938 21.6002 3.35938H25.8935C28.3335 3.35938 30.3335 5.34598 30.3335 7.79932V15.5327C30.3335 16.0927 29.8802 16.5327 29.3335 16.5327ZM21.6002 5.37272C20.1868 5.37272 19.1602 6.39933 19.1602 7.81266V12.106C19.1602 13.5194 20.1868 14.546 21.6002 14.546H28.3335V7.81266C28.3335 6.466 27.2402 5.37272 25.8935 5.37272H21.6002Z" fill="#121212"/>
<path d="M23.2934 28.6265C22.9467 28.6265 22.6134 28.4531 22.4267 28.1331C22.1467 27.6531 22.3067 27.0398 22.7734 26.7598C27.0801 24.1998 28.3334 23.1332 28.3334 15.5332C28.3334 14.9865 28.7867 14.5332 29.3334 14.5332C29.8801 14.5332 30.3334 14.9865 30.3334 15.5332C30.3334 23.8665 28.6401 25.6132 23.8001 28.4798C23.6401 28.5865 23.4667 28.6265 23.2934 28.6265Z" fill="#121212"/>
<path d="M13.827 16.5327H6.09369C3.56035 16.5327 1.65369 14.626 1.65369 12.0927V7.79932C1.65369 5.26598 3.56035 3.35938 6.09369 3.35938H10.4004C12.8404 3.35938 14.8404 5.34598 14.8404 7.79932V15.5327C14.827 16.0927 14.387 16.5327 13.827 16.5327ZM6.10702 5.37272C4.69369 5.37272 3.66702 6.39933 3.66702 7.81266V12.106C3.66702 13.5194 4.69369 14.546 6.10702 14.546H12.8404V7.81266C12.8404 6.466 11.747 5.37272 10.4004 5.37272H6.10702Z" fill="#121212"/>
<path d="M7.7868 28.6265C7.44014 28.6265 7.1068 28.4531 6.92014 28.1331C6.64014 27.6531 6.80014 27.0398 7.2668 26.7598C11.5735 24.1998 12.8268 23.1332 12.8268 15.5332C12.8268 14.9865 13.2801 14.5332 13.8268 14.5332C14.3735 14.5332 14.8268 14.9865 14.8268 15.5332C14.8268 23.8665 13.1335 25.6132 8.29347 28.4798C8.13347 28.5865 7.96014 28.6265 7.7868 28.6265Z" fill="#121212"/>
</svg>
