<svg width="56" height="56" viewBox="0 0 56 56" fill="none" xmlns="http://www.w3.org/2000/svg">
<path d="M34.9997 4.66602V27.9993C34.9997 30.566 32.8997 32.666 30.3331 32.666H4.6664V17.7793C6.36974 19.8093 8.98313 21.0693 11.8765 20.9993C14.2331 20.9527 16.3564 20.0427 17.9431 18.526C18.6664 17.9194 19.2731 17.1493 19.7398 16.3093C20.5798 14.886 21.0464 13.206 20.9997 11.456C20.9297 8.72595 19.7164 6.32268 17.8264 4.66602H34.9997Z" stroke="#121212" stroke-width="1.8" stroke-linecap="round" stroke-linejoin="round"/>
<path d="M51.3331 32.667V39.667C51.3331 43.5403 48.2064 46.667 44.3331 46.667H41.9997C41.9997 44.1003 39.8997 42.0003 37.3331 42.0003C34.7664 42.0003 32.6664 44.1003 32.6664 46.667H23.3331C23.3331 44.1003 21.2331 42.0003 18.6664 42.0003C16.0997 42.0003 13.9997 44.1003 13.9997 46.667H11.6664C7.79307 46.667 4.6664 43.5403 4.6664 39.667V32.667H30.3331C32.8997 32.667 34.9997 30.567 34.9997 28.0003V11.667H39.2931C40.9731 11.667 42.5131 12.577 43.3531 14.0237L47.343 21.0003H44.3331C43.0497 21.0003 41.9997 22.0503 41.9997 23.3337V30.3337C41.9997 31.617 43.0497 32.667 44.3331 32.667H51.3331Z" stroke="#121212" stroke-width="1.8" stroke-linecap="round" stroke-linejoin="round"/>
<path d="M18.6665 51.3333C21.2438 51.3333 23.3331 49.244 23.3331 46.6667C23.3331 44.0893 21.2438 42 18.6665 42C16.0891 42 13.9998 44.0893 13.9998 46.6667C13.9998 49.244 16.0891 51.3333 18.6665 51.3333Z" stroke="#121212" stroke-width="1.8" stroke-linecap="round" stroke-linejoin="round"/>
<path d="M37.3333 51.3333C39.9106 51.3333 41.9999 49.244 41.9999 46.6667C41.9999 44.0893 39.9106 42 37.3333 42C34.7559 42 32.6666 44.0893 32.6666 46.6667C32.6666 49.244 34.7559 51.3333 37.3333 51.3333Z" stroke="#121212" stroke-width="1.8" stroke-linecap="round" stroke-linejoin="round"/>
<path d="M51.3333 28V32.6667H44.3333C43.05 32.6667 42 31.6167 42 30.3333V23.3333C42 22.05 43.05 21 44.3333 21H47.3433L51.3333 28Z" stroke="#121212" stroke-width="1.8" stroke-linecap="round" stroke-linejoin="round"/>
<path d="M21.0002 11.4571C21.0469 13.2071 20.5803 14.8871 19.7403 16.3104C19.2736 17.1504 18.6669 17.9205 17.9435 18.5271C16.3569 20.0438 14.2336 20.9538 11.8769 21.0005C8.9836 21.0705 6.3702 19.8104 4.66687 17.7804C4.3402 17.4304 4.06021 17.0338 3.80355 16.6371C2.89355 15.2605 2.3802 13.6272 2.33354 11.8772C2.26354 8.93718 3.57019 6.25377 5.67018 4.50377C7.25685 3.1971 9.26347 2.38045 11.4568 2.33379C13.9068 2.28712 16.1469 3.17379 17.8269 4.66712C19.7169 6.32379 20.9302 8.72706 21.0002 11.4571Z" stroke="#121212" stroke-width="1.8" stroke-miterlimit="10" stroke-linecap="round" stroke-linejoin="round"/>
<path d="M8.02656 11.7371L10.3832 13.9771L15.2598 9.26367" stroke="#121212" stroke-width="1.8" stroke-linecap="round" stroke-linejoin="round"/>
</svg>
