<svg width="120" height="25" viewBox="0 0 120 25" fill="none" xmlns="http://www.w3.org/2000/svg">
<path d="M9.574 24.544C5.222 24.544 1.822 22.742 0.258 19.342L5.494 16.724C6.14 18.118 7.432 18.764 9.574 18.764C11.24 18.764 12.498 18.254 12.498 17.166C12.498 15.806 11.138 15.602 9.064 15.296C5.63 14.786 0.598 13.46 0.598 7.986C0.598 3.77 4.372 0.539998 9.472 0.539998C13.484 0.539998 16.884 2.342 18.448 5.742L13.212 8.36C12.566 7.238 11.342 6.32 9.2 6.32C7.704 6.32 6.888 6.796 6.888 7.748C6.888 9.04 8.384 9.448 10.628 9.788C14.028 10.298 18.788 11.59 18.788 17.098C18.788 21.314 14.674 24.544 9.574 24.544ZM29.094 24H22.804V1.05H29.094V9.686H38.104V1.05H44.394V24H38.104V15.466H29.094V24ZM66.8653 24H54.9313C51.0553 24 49.4913 21.96 49.4913 18.73V6.32C49.4913 3.09 51.0553 1.05 54.9313 1.05H66.6953V6.66H55.7813V9.72H65.9133V15.33H55.7813V18.39H66.8653V24ZM77.5705 1.05V18.22H87.7025V24H76.7205C72.8445 24 71.2805 21.96 71.2805 18.73V1.05H77.5705ZM90.7708 1.05H97.0608V24H90.7708V1.05ZM110.345 24.544C105.993 24.544 102.593 22.742 101.029 19.342L106.265 16.724C106.911 18.118 108.203 18.764 110.345 18.764C112.011 18.764 113.269 18.254 113.269 17.166C113.269 15.806 111.909 15.602 109.835 15.296C106.401 14.786 101.369 13.46 101.369 7.986C101.369 3.77 105.143 0.539998 110.243 0.539998C114.255 0.539998 117.655 2.342 119.219 5.742L113.983 8.36C113.337 7.238 112.113 6.32 109.971 6.32C108.475 6.32 107.659 6.796 107.659 7.748C107.659 9.04 109.155 9.448 111.399 9.788C114.799 10.298 119.559 11.59 119.559 17.098C119.559 21.314 115.445 24.544 110.345 24.544Z" fill="#121212"/>
</svg>
